<?xml version="1.0" encoding="utf-8"?>
<!-- Generator: Adobe Illustrator 19.0.0, SVG Export Plug-In . SVG Version: 6.00 Build 0)  -->
<svg version="1.1" id="Layer_1" xmlns="http://www.w3.org/2000/svg" xmlns:xlink="http://www.w3.org/1999/xlink" x="0px" y="0px"
	 viewBox="0 0 236.7 234" style="enable-background:new 0 0 236.7 234;" xml:space="preserve">
<style type="text/css">
	.st0{fill:#1CB11A;}
</style>
<g>
	<path class="st0" d="M115.8,219.4c35.3-1,61-12.9,81.3-36.3c9.1-10.5,15.6-22.6,19.4-35.8c2.3-7.8,3-16.1,4-24.2
		c0.3-2.8,1-3.9,4-3.9c8.5-0.1,8.5-0.2,8.2,8.4c-0.3,10.9-3.3,21.2-6.9,31.5c-4.3,11.9-10.8,22.4-18.6,32.1
		c-7.5,9.3-16.4,17.2-26.7,23.2c-8.3,4.8-17.2,8.8-26.1,12.4c-5.5,2.2-11.5,3.7-17.4,4c-11.3,0.6-22.9,1.4-34-0.1
		c-18.5-2.6-35.5-9.7-50.6-21.3c-12.5-9.5-22.9-20.8-30.5-34.4c-8.5-15-13.6-31.1-14.4-48.5c-0.6-11.7-0.1-23.3,2.6-34.6
		c3.5-14.5,9.8-27.8,18.6-39.9C40.9,35,56.8,22.6,75.8,14.4C87.4,9.3,99.7,6,112.6,5.9c6.8-0.1,6.8-0.2,6.8,6.8c0,5.2,0,4.9-5.3,5.4
		c-16.9,1.5-32.8,6.2-47.3,15.5c-11.2,7.2-20.7,16-28.4,26.8C31.3,70.3,26,81.2,23,93.2c-2.6,10.4-4.1,20.8-3.3,31.4
		c1.2,16.7,6,32.3,15,46.7c7.6,12.1,17.3,22.1,29,30.3c8.3,5.8,17.3,10.5,27.1,13.1C100.3,217.2,110.2,218.4,115.8,219.4z"/>
	<path class="st0" d="M73,100.6c0.9,0.7,1.5,1.2,2.1,1.8c11.2,12.1,22.4,24.1,33.6,36.2c2.8,3,4.2,3.2,7.1,0.3
		c29.2-29.2,58.4-58.4,87.6-87.6c4.1-4.1,8.2-8.1,12.2-12.2c1.9-1.9,3.4-2,5.3,0c6.5,7.1,7.6,4.9,0.1,12.4
		c-27.8,28-55.6,56-83.4,83.9C130,143,122.4,150.4,115,158c-2.2,2.2-3.5,1.9-5.4-0.1c-14.3-15.4-28.7-30.8-43.2-46.2
		c-1.8-2-2-3.5,0.1-5.3C68.6,104.5,70.7,102.6,73,100.6z"/>
</g>
</svg>
